<svg id="Vrstva_1" data-name="Vrstva 1" xmlns="http://www.w3.org/2000/svg" xmlns:xlink="http://www.w3.org/1999/xlink" width="2096.76" height="1153.61" viewBox="0 0 2096.76 1153.61"><defs><style>.cls-1{fill:none;}.cls-2{clip-path:url(#clip-path);}.cls-3{fill:#fff;}.cls-4{fill:#e60000;}</style><clipPath id="clip-path"><rect class="cls-1" x="-0.73" y="56.69" width="2099.77" height="1004.09"/></clipPath></defs><rect class="cls-1" width="2096.76" height="1153.61"/><g class="cls-2"><path class="cls-3" d="M787.15,582.54c0,144.83-117.4,262.24-262.24,262.24S262.67,727.37,262.67,582.54,380.08,320.3,524.91,320.3,787.15,437.71,787.15,582.54"/><path class="cls-4" d="M527,728.77c-72.05.24-147-61.26-147.34-160-.21-65.3,35-128.16,80-165.45C503.62,367,563.8,343.61,618.37,343.43c7,0,14.37.56,18.87,2.08-47.72,9.89-85.7,54.31-85.53,104.69a28.22,28.22,0,0,0,.32,4.27c79.85,19.45,116.1,67.63,116.33,134.3s-52.42,139.7-141.37,140"/><polygon class="cls-3" points="931.41 659.22 880.82 538.51 913.88 538.51 945.44 618.65 975.99 538.51 1007.54 538.51 958.46 659.22 931.41 659.22"/><path class="cls-3" d="M1126.13,598.37a75.81,75.81,0,0,1-3.63,23.16A63.81,63.81,0,0,1,1111.73,642a53.43,53.43,0,0,1-18,14.52q-10.89,5.5-25.42,5.51t-25.42-5.51a53.43,53.43,0,0,1-18-14.52,64,64,0,0,1-10.77-20.42,75.81,75.81,0,0,1-3.63-23.16,74.67,74.67,0,0,1,3.63-23,62.72,62.72,0,0,1,10.77-20.16,52.93,52.93,0,0,1,18-14.28q10.89-5.37,25.42-5.38t25.3,5.38a54.71,54.71,0,0,1,18,14.28,61.3,61.3,0,0,1,10.89,20.16,74.67,74.67,0,0,1,3.63,23m-30.55-.13a57.5,57.5,0,0,0-1.75-14.32,34.78,34.78,0,0,0-5.27-11.68,26.86,26.86,0,0,0-8.51-7.79,25.33,25.33,0,0,0-23.54,0,26.76,26.76,0,0,0-8.51,7.79,34.58,34.58,0,0,0-5.26,11.68,59.71,59.71,0,0,0,0,28.78,38.1,38.1,0,0,0,5.13,11.68,24.87,24.87,0,0,0,8.51,7.92,24,24,0,0,0,11.9,2.88,23.2,23.2,0,0,0,11.77-2.88,26.5,26.5,0,0,0,8.51-7.92,36.48,36.48,0,0,0,5.27-11.68,57.07,57.07,0,0,0,1.75-14.46"/><path class="cls-3" d="M1221.91,659.22l-1.25-9.26a39,39,0,0,1-11.24,8.38,35.32,35.32,0,0,1-16.48,3.64,44.38,44.38,0,0,1-22-5.27,49.28,49.28,0,0,1-16-14,63.51,63.51,0,0,1-9.86-20.28,85,85,0,0,1-3.37-24,77.36,77.36,0,0,1,3.49-23,60.66,60.66,0,0,1,10.61-20.16,52.67,52.67,0,0,1,17.86-14.27q10.73-5.39,25.21-5.39A68.26,68.26,0,0,1,1219.4,539V492.19h31.06v167Zm-2.51-94.15a46,46,0,0,0-16.69-3.51,29,29,0,0,0-13.7,3,27,27,0,0,0-9.47,8.16,37.16,37.16,0,0,0-5.6,11.56,46.72,46.72,0,0,0-1.87,13.19,63.18,63.18,0,0,0,1.62,14.45,37.66,37.66,0,0,0,5,12.07,26.8,26.8,0,0,0,8.48,8.28,22.5,22.5,0,0,0,12.07,3.14,25,25,0,0,0,11.71-3.14q6-3.13,8.47-7.41Z"/><path class="cls-3" d="M1340.37,659.11l-1.24-9a34.4,34.4,0,0,1-12.82,8.72,45.17,45.17,0,0,1-17.09,3.16,43.09,43.09,0,0,1-15-2.63,39.5,39.5,0,0,1-12.69-7.51,36.71,36.71,0,0,1-12.32-28.18,34.42,34.42,0,0,1,3.52-15.9,34.89,34.89,0,0,1,9.55-11.64,52.86,52.86,0,0,1,13.82-7.77,87.49,87.49,0,0,1,16.34-4.5,111.44,111.44,0,0,1,13.2-1.88c4.78-.42,8.75-.79,11.94-1.13v-1.75q0-10-5.17-14.28t-14.21-4.26a39.75,39.75,0,0,0-10.07,1.26,43.73,43.73,0,0,0-8.56,3.13,67.38,67.38,0,0,0-6.67,3.75,46,46,0,0,0-4.66,3.38L1278,550.28a46.85,46.85,0,0,1,6.14-4.25,69.07,69.07,0,0,1,10-4.88,83.09,83.09,0,0,1,13.27-4,73.51,73.51,0,0,1,15.9-1.63,60.22,60.22,0,0,1,18.29,2.63,36.91,36.91,0,0,1,14.27,8.26,38.3,38.3,0,0,1,9.39,14.26q3.38,8.63,3.38,20.88v77.57Zm-2.49-56.48c-3.36.16-6.81.46-10.34.87s-6.89,1-10.08,1.63q-10.08,2-14,6.89a16.63,16.63,0,0,0-3.91,10.64,11.89,11.89,0,0,0,4.41,9.65c2.94,2.42,7.11,3.62,12.48,3.62a28.72,28.72,0,0,0,11.72-2.5,34.53,34.53,0,0,0,9.71-6.26Z"/><path class="cls-3" d="M1464.62,519.73a47.64,47.64,0,0,0-5.88-2.13,40.39,40.39,0,0,0-11.65-1.37,15.81,15.81,0,0,0-10.89,3.88q-4.38,3.89-4.38,12.65v5.76h26v25h-25.8v95.66H1401V563.56h-16v-25h16V532q0-11.78,3-19.91a34.61,34.61,0,0,1,8.39-13.28,33,33,0,0,1,12.65-7.51,50.52,50.52,0,0,1,15.77-2.38,69.06,69.06,0,0,1,18.66,2.13q7.38,2.13,8.64,2.88Z"/><path class="cls-3" d="M1579.82,598.37a75.81,75.81,0,0,1-3.63,23.16A64,64,0,0,1,1565.42,642a53.33,53.33,0,0,1-18,14.52Q1536.48,662,1522,662t-25.42-5.51a53.43,53.43,0,0,1-18-14.52,64,64,0,0,1-10.77-20.42,75.81,75.81,0,0,1-3.63-23.16,74.67,74.67,0,0,1,3.63-23,62.72,62.72,0,0,1,10.77-20.16,52.93,52.93,0,0,1,18-14.28q10.89-5.37,25.42-5.38t25.3,5.38a54.71,54.71,0,0,1,18,14.28,61.48,61.48,0,0,1,10.89,20.16,74.67,74.67,0,0,1,3.63,23m-30.55-.13a57.5,57.5,0,0,0-1.75-14.32,34.78,34.78,0,0,0-5.27-11.68,26.86,26.86,0,0,0-8.51-7.79,25.33,25.33,0,0,0-23.54,0,26.76,26.76,0,0,0-8.51,7.79,34.58,34.58,0,0,0-5.26,11.68,59.71,59.71,0,0,0,0,28.78,38.1,38.1,0,0,0,5.13,11.68,24.87,24.87,0,0,0,8.51,7.92,24,24,0,0,0,11.9,2.88,23.2,23.2,0,0,0,11.77-2.88,26.5,26.5,0,0,0,8.51-7.92,36.48,36.48,0,0,0,5.27-11.68,57.07,57.07,0,0,0,1.75-14.46"/><path class="cls-3" d="M1676.21,659.22V590.35q0-13.76-5.76-21.28t-16-7.51a25.22,25.22,0,0,0-13.4,3.75,57.39,57.39,0,0,0-10.64,8.27v85.64h-31.05V538.51h28.29l1.51,9.52a53.84,53.84,0,0,1,16.4-9.26,54.57,54.57,0,0,1,18.41-3.26,51.78,51.78,0,0,1,17.53,2.88,34.18,34.18,0,0,1,13.77,9.14,42.26,42.26,0,0,1,8.89,16.28q3.13,10,3.13,24v71.37Z"/><path class="cls-3" d="M1757,606.63q1,15.29,9.56,22t22.12,6.76a58.55,58.55,0,0,0,11.82-1.13,53.8,53.8,0,0,0,9.8-2.87,60.38,60.38,0,0,0,7.29-3.51,23,23,0,0,0,4.53-3.26l8.26,25.3a63.45,63.45,0,0,1-5.63,3.38,58,58,0,0,1-9.64,4,101.88,101.88,0,0,1-13.53,3.25,98.45,98.45,0,0,1-17,1.38,66.65,66.65,0,0,1-22.41-3.76,49.77,49.77,0,0,1-18.66-11.65,57.21,57.21,0,0,1-12.77-19.65q-4.77-11.76-4.75-28,0-15.27,4.37-27a57,57,0,0,1,12-19.79,52.21,52.21,0,0,1,17.78-12.27,55.31,55.31,0,0,1,21.66-4.26,58.65,58.65,0,0,1,21.28,3.76A43.55,43.55,0,0,1,1820,550.91q7.14,7.89,11.26,20.41t4.14,29.8v5.51Zm46.83-22.28a32,32,0,0,0-2.64-10.9,23.21,23.21,0,0,0-5.29-7.51,20.84,20.84,0,0,0-14.22-5.64q-8.07,0-15.36,6t-8.56,18Z"/><path class="cls-3" d="M1646.71,881.66A32.71,32.71,0,0,0,1662,870.6q6.21-7.89,6.21-20.3,0-14.1-8.15-22t-23.46-13.49q-26.76-9.74-26.75-20.91a15.44,15.44,0,0,1,4.49-10.71q4.5-4.86,14.71-4.87a40.75,40.75,0,0,1,16.3,3.16,44.58,44.58,0,0,1,13.13,8.76l7.54-13.37a50.65,50.65,0,0,0-15.08-9.6q-9.26-4-22.13-4-16.29,0-26.14,8.86t-9.85,23q0,12.17,6.81,19.57t23.34,13.5q28.71,11.19,28.7,23.34,0,9.5-5.71,13.87t-16.91,4.37a40.61,40.61,0,0,1-19.08-4.26,70,70,0,0,1-13.5-8.87l-6.32,15.08a39.93,39.93,0,0,0,7.29,5.1,61.33,61.33,0,0,0,13.37,5.6,63,63,0,0,0,18.24,2.43,53.6,53.6,0,0,0,17.63-3.17m-92.64,0a32.73,32.73,0,0,0,15.31-11.06q6.21-7.89,6.21-20.3,0-14.1-8.15-22T1544,814.8q-26.76-9.74-26.75-20.91a15.44,15.44,0,0,1,4.49-10.71q4.5-4.86,14.72-4.87a40.7,40.7,0,0,1,16.29,3.16,44.76,44.76,0,0,1,13.14,8.76l7.53-13.37a50.72,50.72,0,0,0-15.07-9.6q-9.25-4-22.13-4-16.32,0-26.14,8.86t-9.86,23q0,12.17,6.81,19.57t23.35,13.5q28.7,11.19,28.7,23.34c0,6.33-1.92,11-5.72,13.87s-9.45,4.37-16.9,4.37a40.63,40.63,0,0,1-19.09-4.26,70.31,70.31,0,0,1-13.5-8.87l-6.32,15.08a39.73,39.73,0,0,0,7.3,5.1,61.12,61.12,0,0,0,13.37,5.6,62.93,62.93,0,0,0,18.24,2.43,53.69,53.69,0,0,0,17.63-3.17M1413.64,785a28.09,28.09,0,0,1,19-6.94c3.24,0,7.13.95,11.67,2.8A25.36,25.36,0,0,1,1455.83,791a34.19,34.19,0,0,1,5.23,17.27H1402.7q2.91-16.29,10.94-23.22M1460,881.18q11.07-3.64,16.42-9l-4.62-15.33a59.91,59.91,0,0,1-14.84,9.24,46.57,46.57,0,0,1-19,3.65q-18,0-27.48-12.4T1401,823.06h80.25a97.11,97.11,0,0,0-4.25-27.47,45.39,45.39,0,0,0-15.69-23.35q-11.43-9-28.69-9a51.56,51.56,0,0,0-22.86,5.59q-11.45,5.6-18.84,20.18t-7.43,34.53q0,29.91,14.6,45.59t39.38,15.69a71.43,71.43,0,0,0,22.5-3.65m-175.93,1V791.2a77.11,77.11,0,0,1,14.34-8.87,39.19,39.19,0,0,1,17.27-4q14.11,0,20.31,8.28t6.2,22.86v72.7h17.75V809.93q0-23.34-9.24-35t-32.1-11.66a52.92,52.92,0,0,0-19,3.4,59.59,59.59,0,0,0-15.81,8.75l-1.21-9.24h-16.3v116Zm-47.9-139.45c2.27-2,3.4-5,3.4-8.88q0-5.6-3.4-8.76a11.75,11.75,0,0,0-8.27-3.16,12.18,12.18,0,0,0-8.39,3.16,11.17,11.17,0,0,0-3.53,8.76c0,3.89,1.18,6.84,3.53,8.88a12.46,12.46,0,0,0,8.39,3,12,12,0,0,0,8.27-3m.73,23.46h-18v116h18Zm-60.43,115.5a32.76,32.76,0,0,0,15.32-11.06q6.2-7.89,6.2-20.3,0-14.1-8.14-22t-23.47-13.49q-26.76-9.74-26.75-20.91a15.46,15.46,0,0,1,4.5-10.71q4.48-4.86,14.71-4.87a40.66,40.66,0,0,1,16.29,3.16,44.76,44.76,0,0,1,13.14,8.76l7.53-13.37a50.52,50.52,0,0,0-15.08-9.6q-9.24-4-22.12-4-16.29,0-26.14,8.86t-9.86,23q0,12.17,6.81,19.57t23.35,13.5q28.69,11.19,28.69,23.34,0,9.5-5.71,13.87t-16.9,4.37a40.63,40.63,0,0,1-19.09-4.26,70.31,70.31,0,0,1-13.5-8.87l-6.31,15.08a39.39,39.39,0,0,0,7.28,5.1,61.43,61.43,0,0,0,13.38,5.6,62.93,62.93,0,0,0,18.24,2.43,53.69,53.69,0,0,0,17.63-3.17m-112,0a60.12,60.12,0,0,0,14.59-8.5l1.21,9h16.54v-116h-18.23v90.7a45.79,45.79,0,0,1-13.74,9.13,41,41,0,0,1-16.9,3.76q-13.14,0-19.82-6.93t-6.69-22.25V766.16h-17.75v73.43q0,22.86,9.73,34T1045,884.83q11.67,0,19.45-3.17M912.72,868.78a47.34,47.34,0,0,1-9.25-3.16V786.11a39.77,39.77,0,0,1,12-5.72,44.68,44.68,0,0,1,11.55-1.58,34.78,34.78,0,0,1,15.81,4.24q8.26,4.28,14.1,14.72t5.84,26q0,21.15-10.7,33.67T922.68,870a42.85,42.85,0,0,1-10-1.22m36.59,10.82q12.53-5.24,21.65-19.82t9.11-35.5a87.1,87.1,0,0,0-5-29.06,46.91,46.91,0,0,0-17-23,46.17,46.17,0,0,0-27.85-8.76,61,61,0,0,0-13,1.46,62.07,62.07,0,0,0-13.75,4.87V720H885.73V876.07a111.12,111.12,0,0,0,16.77,6,83.6,83.6,0,0,0,22.62,2.8,62.57,62.57,0,0,0,24.19-5.23"/><path class="cls-3" d="M883.89,419V255.57h48.53q26.7,0,39.58,12.5t12.86,37q0,23.78-13.6,36t-39.58,12.26H902.52V419Zm18.63-82.84h30.39q14.21,0,23.16-7.35T965,304.59q0-16.9-8.45-24.51t-23.9-7.6H902.52Z"/><path class="cls-3" d="M1030,421.74a42.85,42.85,0,0,1-14.09-2.33,38,38,0,0,1-12.14-6.86,32.48,32.48,0,0,1-8.57-11.4A37.34,37.34,0,0,1,992,385.22q0-17.14,12.5-27.08a60.19,60.19,0,0,1,28.18-12.5,168.68,168.68,0,0,1,26.72-2.57V341.6q0-14.72-6-21.08t-17-6.37a44.79,44.79,0,0,0-15.93,3.06,57.5,57.5,0,0,0-15.69,9.19l-5.88-13.72a81.62,81.62,0,0,1,15.69-9.19q9.32-4.29,23.28-4.29,18.62,0,29,10.05t10.42,33.57V419h-16.42L1060.1,409A40.6,40.6,0,0,1,1030,421.74Zm2.2-15.44a31.27,31.27,0,0,0,14.83-3.56,64.6,64.6,0,0,0,12.38-8.45V358a131.34,131.34,0,0,0-27.09,3.31q-11.38,2.82-16.78,9.06a22.28,22.28,0,0,0-5.4,15.08,19.81,19.81,0,0,0,4.54,13.23q4.53,5.4,9.19,6.49A36.31,36.31,0,0,0,1032.16,406.3Z"/><path class="cls-3" d="M1108.87,419V302.14H1125l1.72,11.76a82.12,82.12,0,0,1,13.85-10.41,30,30,0,0,1,15.56-4.29,48.35,48.35,0,0,1,10,1.22L1164,317.83a42.48,42.48,0,0,0-8.82-1,29.22,29.22,0,0,0-15.32,4.54,68.77,68.77,0,0,0-13.11,10.17V419Z"/><path class="cls-3" d="M1219.4,421.74q-12.5,0-19.24-6.74t-6.74-20.71V317.58h-19.11V302.14h19.11V270.28h17.89v31.86h29.17v15.44h-29.41v74.75q0,8.58,3.18,11.39a11.72,11.72,0,0,0,8.09,2.82q7.85,0,16.17-6.37l4.91,14.22a43.87,43.87,0,0,1-10.17,5.14A40.09,40.09,0,0,1,1219.4,421.74Z"/><path class="cls-3" d="M1262.53,419V302.14H1279l1.23,9.31a59.91,59.91,0,0,1,15.93-8.82,53.5,53.5,0,0,1,19.12-3.43q23,0,32.34,11.76t9.32,35.29V419H1339V345.76q0-14.7-6.25-23t-20.47-8.34a39.33,39.33,0,0,0-17.4,4.05,76.5,76.5,0,0,0-14.46,8.94V419Z"/><path class="cls-3" d="M1437.52,421.74q-25,0-39.7-15.81T1383.11,360q0-20.1,7.48-34.8t19-20.35a52.09,52.09,0,0,1,23-5.63q17.39,0,28.92,9.07a45.72,45.72,0,0,1,15.8,23.52,97.37,97.37,0,0,1,4.29,27.7h-80.88q0,22,9.56,34.55t27.7,12.5a46.94,46.94,0,0,0,19.11-3.67,60.46,60.46,0,0,0,15-9.32l4.66,15.44q-5.4,5.4-16.54,9.07A72.07,72.07,0,0,1,1437.52,421.74Zm-35-77.2h58.82a34.37,34.37,0,0,0-5.27-17.4A25.6,25.6,0,0,0,1444.38,317a32.15,32.15,0,0,0-11.76-2.81,28.32,28.32,0,0,0-19.12,7Q1405.42,328.12,1402.47,344.54Z"/><path class="cls-3" d="M1506.87,419V302.14h16.18l1.71,11.76a82.12,82.12,0,0,1,13.85-10.41,30,30,0,0,1,15.56-4.29,48.35,48.35,0,0,1,10,1.22l-2.2,17.41a42.57,42.57,0,0,0-8.83-1,29.19,29.19,0,0,0-15.31,4.54,68.84,68.84,0,0,0-13.12,10.17V419Z"/></g></svg>