<svg id="Vrstva_1" data-name="Vrstva 1" xmlns="http://www.w3.org/2000/svg" width="2096.76" height="1153.61" viewBox="0 0 2096.76 1153.61"><defs><style>.cls-1{fill:#212121;}.cls-2{fill:#fff;}.cls-3{fill:none;}</style></defs><path class="cls-1" d="M787.66,585.06c0,144.83-117.41,262.24-262.24,262.24S263.18,729.89,263.18,585.06s117.4-262.24,262.24-262.24,262.24,117.4,262.24,262.24"/><path class="cls-2" d="M527.49,731.29c-72.05.23-147-61.26-147.34-160-.21-65.29,35-128.15,80.05-165.44,43.92-36.37,104.1-59.72,158.67-59.9,7,0,14.38.56,18.88,2.08-47.72,9.9-85.7,54.31-85.53,104.69a27.33,27.33,0,0,0,.31,4.28c79.86,19.45,116.11,67.63,116.33,134.29S616.45,731,527.49,731.29"/><polygon class="cls-1" points="931.91 661.74 881.33 541.03 914.38 541.03 945.94 621.17 976.49 541.03 1008.04 541.03 958.96 661.74 931.91 661.74"/><path class="cls-1" d="M1126.63,600.88a75.92,75.92,0,0,1-3.63,23.17,63.66,63.66,0,0,1-10.77,20.41,53.31,53.31,0,0,1-18,14.52q-10.89,5.5-25.42,5.51T1043.36,659a53.31,53.31,0,0,1-18-14.52,63.64,63.64,0,0,1-10.76-20.41,75.63,75.63,0,0,1-3.64-23.17,74.48,74.48,0,0,1,3.64-23,62.61,62.61,0,0,1,10.76-20.16,52.78,52.78,0,0,1,18-14.27q10.91-5.38,25.42-5.38t25.3,5.38a54.55,54.55,0,0,1,18,14.27A61.4,61.4,0,0,1,1123,577.84a74.77,74.77,0,0,1,3.63,23m-30.55-.12a57.39,57.39,0,0,0-1.75-14.32,34.83,34.83,0,0,0-5.26-11.69,27.13,27.13,0,0,0-8.52-7.79,25.41,25.41,0,0,0-23.54,0,27.1,27.1,0,0,0-8.51,7.79,34.83,34.83,0,0,0-5.26,11.69,59.67,59.67,0,0,0,0,28.77,38.34,38.34,0,0,0,5.13,11.68,24.9,24.9,0,0,0,8.52,7.92,23.9,23.9,0,0,0,11.89,2.89,23.2,23.2,0,0,0,11.77-2.89,26.53,26.53,0,0,0,8.52-7.92,36.47,36.47,0,0,0,5.26-11.68,57,57,0,0,0,1.75-14.45"/><path class="cls-1" d="M1222.42,661.74l-1.26-9.27a38.84,38.84,0,0,1-11.24,8.39,35.28,35.28,0,0,1-16.47,3.63,44.49,44.49,0,0,1-22-5.26,49.5,49.5,0,0,1-16-14,64,64,0,0,1-9.86-20.29,85.31,85.31,0,0,1-3.37-24,77.36,77.36,0,0,1,3.49-23,60.88,60.88,0,0,1,10.61-20.15,52.92,52.92,0,0,1,17.86-14.28Q1185,538,1199.44,538a67.94,67.94,0,0,1,20.46,3.47V494.7H1251v167Zm-2.52-94.15a45.78,45.78,0,0,0-16.69-3.52,29.07,29.07,0,0,0-13.7,3,27.22,27.22,0,0,0-9.46,8.16,37.29,37.29,0,0,0-5.61,11.56,47.15,47.15,0,0,0-1.87,13.2,63.59,63.59,0,0,0,1.62,14.44,37.88,37.88,0,0,0,5,12.07,26.83,26.83,0,0,0,8.48,8.29,22.62,22.62,0,0,0,12.08,3.13,25.15,25.15,0,0,0,11.71-3.13c4-2.09,6.8-4.57,8.46-7.41Z"/><path class="cls-1" d="M1340.88,661.62l-1.25-9a34.2,34.2,0,0,1-12.82,8.72,45,45,0,0,1-17.09,3.16,42.86,42.86,0,0,1-15-2.63,39.42,39.42,0,0,1-12.69-7.51,36.71,36.71,0,0,1-12.32-28.17,34.39,34.39,0,0,1,3.52-15.9,35,35,0,0,1,9.55-11.65,52.74,52.74,0,0,1,13.83-7.76,86.44,86.44,0,0,1,16.33-4.51,113.55,113.55,0,0,1,13.2-1.88c4.78-.41,8.75-.79,11.94-1.13V581.6q0-10-5.16-14.27t-14.22-4.26a39.67,39.67,0,0,0-10.06,1.25,44.24,44.24,0,0,0-8.57,3.13,65.37,65.37,0,0,0-6.67,3.76,44.63,44.63,0,0,0-4.65,3.38l-10.27-21.79a46.5,46.5,0,0,1,6.13-4.26,72.3,72.3,0,0,1,10-4.88,84.26,84.26,0,0,1,13.28-4,74,74,0,0,1,15.89-1.62,59.91,59.91,0,0,1,18.29,2.63,37,37,0,0,1,14.27,8.25,38.26,38.26,0,0,1,9.39,14.26q3.39,8.63,3.39,20.89v77.56Zm-2.5-56.48c-3.36.17-6.81.46-10.33.88s-6.89,1-10.09,1.63q-10.08,2-14,6.88a16.72,16.72,0,0,0-3.9,10.64,11.87,11.87,0,0,0,4.4,9.65c2.94,2.42,7.11,3.63,12.48,3.63a28.73,28.73,0,0,0,11.72-2.51,34.31,34.31,0,0,0,9.71-6.26Z"/><path class="cls-1" d="M1465.13,522.25a48.65,48.65,0,0,0-5.89-2.13,39.87,39.87,0,0,0-11.64-1.38,15.84,15.84,0,0,0-10.9,3.89q-4.38,3.89-4.38,12.64V541h26v25h-25.8v95.67h-31V566.07h-16V541h16v-6.51q0-11.76,3-19.91a34.65,34.65,0,0,1,8.39-13.27,32.83,32.83,0,0,1,12.65-7.51,50.29,50.29,0,0,1,15.78-2.38,69,69,0,0,1,18.65,2.12q7.38,2.15,8.64,2.89Z"/><path class="cls-1" d="M1580.32,600.88a75.92,75.92,0,0,1-3.63,23.17,63.66,63.66,0,0,1-10.77,20.41,53.21,53.21,0,0,1-18,14.52q-10.89,5.5-25.42,5.51T1497.05,659a53.31,53.31,0,0,1-18-14.52,63.64,63.64,0,0,1-10.76-20.41,75.63,75.63,0,0,1-3.64-23.17,74.48,74.48,0,0,1,3.64-23A62.61,62.61,0,0,1,1479,557.68a52.78,52.78,0,0,1,18-14.27Q1508,538,1522.47,538t25.3,5.38a54.55,54.55,0,0,1,18,14.27,61.4,61.4,0,0,1,10.89,20.16,74.77,74.77,0,0,1,3.63,23m-30.55-.12a56.92,56.92,0,0,0-1.75-14.32,34.83,34.83,0,0,0-5.26-11.69,27.13,27.13,0,0,0-8.52-7.79,25.41,25.41,0,0,0-23.54,0,27.1,27.1,0,0,0-8.51,7.79,34.83,34.83,0,0,0-5.26,11.69,59.67,59.67,0,0,0,0,28.77,38.12,38.12,0,0,0,5.14,11.68,24.78,24.78,0,0,0,8.51,7.92,23.9,23.9,0,0,0,11.89,2.89,23.2,23.2,0,0,0,11.77-2.89,26.53,26.53,0,0,0,8.52-7.92,36.47,36.47,0,0,0,5.26-11.68,56.55,56.55,0,0,0,1.75-14.45"/><path class="cls-1" d="M1676.71,661.74V592.87q0-13.77-5.76-21.29t-16-7.51a25.12,25.12,0,0,0-13.4,3.76,56.68,56.68,0,0,0-10.65,8.26v85.65h-31.05V541h28.3l1.5,9.52a53.77,53.77,0,0,1,16.4-9.27,54.6,54.6,0,0,1,18.41-3.25,51.49,51.49,0,0,1,17.53,2.88,34.29,34.29,0,0,1,13.78,9.13,42.65,42.65,0,0,1,8.89,16.29q3.12,10,3.13,24v71.38Z"/><path class="cls-1" d="M1757.55,609.15q1,15.27,9.55,22t22.12,6.76a59.28,59.28,0,0,0,11.82-1.13,54.58,54.58,0,0,0,9.8-2.88,58.22,58.22,0,0,0,7.29-3.51,21.94,21.94,0,0,0,4.53-3.26l8.26,25.3a58.11,58.11,0,0,1-15.27,7.39,100.54,100.54,0,0,1-13.52,3.25,97.67,97.67,0,0,1-17,1.38,66.69,66.69,0,0,1-22.41-3.76A49.75,49.75,0,0,1,1744,649.09a57.13,57.13,0,0,1-12.78-19.66q-4.76-11.76-4.75-28,0-15.27,4.37-27a57.1,57.1,0,0,1,12-19.78,52.34,52.34,0,0,1,17.78-12.28,55.52,55.52,0,0,1,21.66-4.25,59,59,0,0,1,21.29,3.75,43.81,43.81,0,0,1,16.9,11.64q7.14,7.89,11.27,20.42t4.13,29.8v5.51Zm46.83-22.29a32.37,32.37,0,0,0-2.65-10.9,23.45,23.45,0,0,0-5.28-7.51,21.34,21.34,0,0,0-6.8-4.26,21.05,21.05,0,0,0-7.43-1.37q-8.06,0-15.36,6t-8.56,18Z"/><path class="cls-1" d="M1647.21,884.18a32.73,32.73,0,0,0,15.32-11.06q6.21-7.9,6.21-20.31,0-14.1-8.15-22t-23.46-13.49q-26.76-9.72-26.75-20.91a15.42,15.42,0,0,1,4.49-10.7q4.5-4.87,14.72-4.87a40.73,40.73,0,0,1,16.29,3.16,44.74,44.74,0,0,1,13.13,8.75l7.54-13.37a50.84,50.84,0,0,0-15.08-9.6q-9.24-4-22.13-4-16.29,0-26.14,8.87t-9.85,23q0,12.15,6.81,19.57t23.34,13.5q28.71,11.17,28.71,23.34c0,6.32-1.92,10.94-5.72,13.86s-9.45,4.38-16.9,4.38A40.63,40.63,0,0,1,1610.5,868a70.31,70.31,0,0,1-13.5-8.87l-6.32,15.07a39.35,39.35,0,0,0,7.29,5.11,61.55,61.55,0,0,0,13.37,5.59,63.05,63.05,0,0,0,18.25,2.43,53.78,53.78,0,0,0,17.62-3.16m-92.64,0a32.82,32.82,0,0,0,15.32-11.06q6.19-7.9,6.2-20.31,0-14.1-8.15-22t-23.46-13.49q-26.74-9.72-26.75-20.91a15.39,15.39,0,0,1,4.5-10.7q4.49-4.87,14.71-4.87a40.7,40.7,0,0,1,16.29,3.16,44.92,44.92,0,0,1,13.14,8.75l7.54-13.37a51.1,51.1,0,0,0-15.08-9.6q-9.25-4-22.13-4-16.31,0-26.14,8.87t-9.85,23q0,12.15,6.8,19.57t23.36,13.5q28.68,11.17,28.69,23.34,0,9.48-5.72,13.86t-16.9,4.38a40.63,40.63,0,0,1-19.09-4.26,70.31,70.31,0,0,1-13.5-8.87L1498,874.21a39.52,39.52,0,0,0,7.3,5.11,61.55,61.55,0,0,0,13.37,5.59,62.93,62.93,0,0,0,18.24,2.43,53.88,53.88,0,0,0,17.63-3.16m-140.43-96.66a28.08,28.08,0,0,1,19-6.93,32,32,0,0,1,11.67,2.79,25.45,25.45,0,0,1,11.56,10.1,34.18,34.18,0,0,1,5.22,17.26H1403.2q2.92-16.29,10.94-23.22m46.32,96.17q11.07-3.65,16.42-9l-4.62-15.32a60,60,0,0,1-14.84,9.24,46.74,46.74,0,0,1-19,3.65q-18,0-27.48-12.41t-9.49-34.29h80.25a96.81,96.81,0,0,0-4.25-27.47,45.43,45.43,0,0,0-15.69-23.35q-11.43-9-28.69-9a51.59,51.59,0,0,0-22.86,5.59q-11.45,5.6-18.84,20.18T1384,826.07q0,29.89,14.59,45.58T1438,887.34a71.41,71.41,0,0,0,22.49-3.65m-175.93,1V793.72a76.07,76.07,0,0,1,14.34-8.87,39.08,39.08,0,0,1,17.27-4q14.11,0,20.31,8.27t6.2,22.86v72.71h17.75V812.44q0-23.34-9.24-35t-32.1-11.67a53.18,53.18,0,0,0-19,3.4,59.4,59.4,0,0,0-15.8,8.76l-1.22-9.25h-16.29v116Zm-47.9-139.46c2.27-2,3.4-5,3.4-8.88,0-3.72-1.13-6.65-3.4-8.75a11.71,11.71,0,0,0-8.26-3.17,12.17,12.17,0,0,0-8.4,3.17c-2.35,2.1-3.52,5-3.52,8.75,0,3.9,1.17,6.85,3.52,8.88a12.49,12.49,0,0,0,8.4,3,12,12,0,0,0,8.26-3m.73,23.46h-18v116h18Zm-60.43,115.51a32.9,32.9,0,0,0,15.33-11.06q6.2-7.9,6.2-20.31,0-14.1-8.15-22t-23.47-13.49q-26.74-9.72-26.75-20.91a15.43,15.43,0,0,1,4.5-10.7q4.5-4.87,14.71-4.87a40.66,40.66,0,0,1,16.29,3.16,44.79,44.79,0,0,1,13.14,8.75l7.54-13.37a51,51,0,0,0-15.08-9.6q-9.26-4-22.13-4-16.29,0-26.14,8.87t-9.85,23q0,12.15,6.8,19.57t23.36,13.5q28.68,11.17,28.69,23.34,0,9.48-5.72,13.86t-16.9,4.38a40.63,40.63,0,0,1-19.09-4.26,70.62,70.62,0,0,1-13.5-8.87l-6.31,15.07a39.35,39.35,0,0,0,7.29,5.11,61.44,61.44,0,0,0,13.38,5.59,62.81,62.81,0,0,0,18.23,2.43,53.88,53.88,0,0,0,17.63-3.16m-112,0a60.28,60.28,0,0,0,14.58-8.51l1.22,9h16.54v-116h-18.24v90.71a45.59,45.59,0,0,1-13.74,9.12,40.83,40.83,0,0,1-16.9,3.77q-13.14,0-19.82-6.93t-6.68-22.26V768.67h-17.76v73.44q0,22.86,9.73,34t31.61,11.18q11.67,0,19.46-3.16M913.22,871.3a47.23,47.23,0,0,1-9.24-3.17V788.62a39.61,39.61,0,0,1,12-5.72,44.73,44.73,0,0,1,11.55-1.58,34.64,34.64,0,0,1,15.81,4.25q8.26,4.26,14.1,14.72t5.84,26q0,21.16-10.7,33.68t-29.43,12.52a43.43,43.43,0,0,1-10-1.21m36.6,10.81q12.51-5.22,21.64-19.82t9.11-35.5a87.38,87.38,0,0,0-5-29.06,47,47,0,0,0-17-23A46.13,46.13,0,0,0,930.73,766a60.94,60.94,0,0,0-13,1.45A62.51,62.51,0,0,0,904,772.32V722.47H886.23V878.59A111.6,111.6,0,0,0,903,884.54a83.65,83.65,0,0,0,22.62,2.8,62.65,62.65,0,0,0,24.2-5.23"/><path class="cls-1" d="M884.39,421.56V258.09h48.53q26.72,0,39.58,12.5t12.87,37q0,23.78-13.61,36t-39.57,12.25H903v65.69ZM903,338.72h30.39q14.21,0,23.16-7.35t8.94-24.27q0-16.91-8.45-24.5t-23.9-7.6H903Z"/><path class="cls-1" d="M1030.46,424.25a42.89,42.89,0,0,1-14.09-2.33,38,38,0,0,1-12.14-6.86,32.48,32.48,0,0,1-8.57-11.4,37.33,37.33,0,0,1-3.19-15.92q0-17.16,12.5-27.09a60.48,60.48,0,0,1,28.18-12.5,169.88,169.88,0,0,1,26.72-2.57v-1.47q0-14.7-6-21.08t-17-6.37a45,45,0,0,0-15.93,3.06,58,58,0,0,0-15.68,9.19l-5.89-13.72A81.93,81.93,0,0,1,1015,306q9.32-4.28,23.28-4.29,18.63,0,29,10.05t10.42,33.58v76.22h-16.42l-.74-10.05a40.6,40.6,0,0,1-30.14,12.74Zm2.21-15.44a31.25,31.25,0,0,0,14.82-3.55,64.79,64.79,0,0,0,12.38-8.46V360.53a131.15,131.15,0,0,0-27.08,3.31q-11.4,2.82-16.79,9.07a22.25,22.25,0,0,0-5.39,15.07,19.86,19.86,0,0,0,4.53,13.23q4.53,5.4,9.19,6.5A36.89,36.89,0,0,0,1032.67,408.81Z"/><path class="cls-1" d="M1109.37,421.56V304.65h16.18l1.71,11.77A81.65,81.65,0,0,1,1141.11,306a30.07,30.07,0,0,1,15.56-4.29,47.75,47.75,0,0,1,10,1.23l-2.2,17.4a43.22,43.22,0,0,0-8.83-1,29.17,29.17,0,0,0-15.31,4.53,69.25,69.25,0,0,0-13.12,10.17v87.5Z"/><path class="cls-1" d="M1219.9,424.25q-12.5,0-19.23-6.74t-6.75-20.71V320.09h-19.11V304.65h19.11V272.79h17.89v31.86H1241v15.44h-29.41v74.75q0,8.58,3.19,11.4a11.72,11.72,0,0,0,8.08,2.82q7.85,0,16.18-6.38l4.9,14.22a43.48,43.48,0,0,1-10.17,5.14A39.81,39.81,0,0,1,1219.9,424.25Z"/><path class="cls-1" d="M1263,421.56V304.65h16.43l1.22,9.32a59.93,59.93,0,0,1,15.93-8.83,53.72,53.72,0,0,1,19.12-3.43q23,0,32.35,11.76t9.31,35.3v72.79H1339.5V348.28q0-14.71-6.25-23t-20.46-8.33a39.36,39.36,0,0,0-17.41,4,77,77,0,0,0-14.46,8.95v91.66Z"/><path class="cls-1" d="M1438,424.25q-25,0-39.7-15.81t-14.71-45.95q0-20.08,7.48-34.8t19-20.34a52,52,0,0,1,23-5.64q17.4,0,28.92,9.07a45.63,45.63,0,0,1,15.8,23.53,97.33,97.33,0,0,1,4.3,27.69h-80.88q0,22.06,9.56,34.56t27.69,12.5a47,47,0,0,0,19.12-3.68,60.8,60.8,0,0,0,14.95-9.31l4.65,15.44q-5.38,5.39-16.54,9.07A72,72,0,0,1,1438,424.25Zm-35-77.2h58.82a34.37,34.37,0,0,0-5.27-17.4,25.52,25.52,0,0,0-11.64-10.17c-4.57-1.87-8.49-2.82-11.76-2.82a28.3,28.3,0,0,0-19.12,7Q1405.92,330.63,1403,347.05Z"/><path class="cls-1" d="M1507.37,421.56V304.65h16.18l1.71,11.77A82.05,82.05,0,0,1,1539.11,306a30.08,30.08,0,0,1,15.57-4.29,47.74,47.74,0,0,1,10,1.23l-2.2,17.4a43.2,43.2,0,0,0-8.82-1,29.18,29.18,0,0,0-15.32,4.53,69.25,69.25,0,0,0-13.12,10.17v87.5Z"/><rect class="cls-3" width="2096.76" height="1153.61"/></svg>