<svg id="Vrstva_1" data-name="Vrstva 1" xmlns="http://www.w3.org/2000/svg" width="2096.76" height="1153.61" viewBox="0 0 2096.76 1153.61"><defs><style>.cls-1{fill:#e60000;}.cls-2{fill:#fff;}.cls-3{fill:none;}</style></defs><path class="cls-1" d="M786.48,582.93c0,144.83-117.41,262.24-262.24,262.24S262,727.76,262,582.93,379.41,320.69,524.24,320.69,786.48,438.1,786.48,582.93"/><path class="cls-2" d="M526.32,729.16c-72.05.24-147-61.26-147.34-160-.22-65.3,35-128.16,80-165.45C503,367.34,563.12,344,617.7,343.81c7,0,14.37.57,18.87,2.09-47.72,9.89-85.7,54.31-85.53,104.69a28.33,28.33,0,0,0,.32,4.27c79.85,19.45,116.1,67.63,116.32,134.3s-52.41,139.7-141.36,140"/><polygon class="cls-1" points="930.74 659.61 880.15 538.9 913.21 538.9 944.76 619.04 975.32 538.9 1006.87 538.9 957.79 659.61 930.74 659.61"/><path class="cls-1" d="M1125.46,598.76a76.11,76.11,0,0,1-3.63,23.16,64,64,0,0,1-10.77,20.42,53.43,53.43,0,0,1-18,14.52q-10.9,5.5-25.42,5.51t-25.42-5.51a53.43,53.43,0,0,1-18-14.52,63.81,63.81,0,0,1-10.77-20.42,75.81,75.81,0,0,1-3.63-23.16,74.67,74.67,0,0,1,3.63-23,62.53,62.53,0,0,1,10.77-20.16,52.93,52.93,0,0,1,18-14.28q10.89-5.37,25.42-5.38t25.29,5.38a54.5,54.5,0,0,1,18,14.28,61.32,61.32,0,0,1,10.9,20.16,75,75,0,0,1,3.63,23m-30.55-.13a57,57,0,0,0-1.76-14.32,34.72,34.72,0,0,0-5.26-11.69,27.05,27.05,0,0,0-8.51-7.78,25.33,25.33,0,0,0-23.54,0,26.84,26.84,0,0,0-8.51,7.78,34.53,34.53,0,0,0-5.26,11.69,59.71,59.71,0,0,0,0,28.78,38.1,38.1,0,0,0,5.13,11.68,24.87,24.87,0,0,0,8.51,7.92,23.91,23.91,0,0,0,11.9,2.88,23.2,23.2,0,0,0,11.77-2.88,26.6,26.6,0,0,0,8.51-7.92,36.25,36.25,0,0,0,5.26-11.68,56.62,56.62,0,0,0,1.76-14.46"/><path class="cls-1" d="M1221.24,659.61l-1.26-9.26a38.76,38.76,0,0,1-11.23,8.38,35.32,35.32,0,0,1-16.48,3.64,44.38,44.38,0,0,1-22-5.27,49.42,49.42,0,0,1-16-14,63.7,63.7,0,0,1-9.85-20.28,85,85,0,0,1-3.37-24,77.36,77.36,0,0,1,3.49-23,60.56,60.56,0,0,1,10.61-20.16,52.64,52.64,0,0,1,17.85-14.27q10.73-5.38,25.21-5.39a68.32,68.32,0,0,1,20.47,3.47V492.58h31.06v167Zm-2.51-94.15a46,46,0,0,0-16.69-3.52,28.93,28.93,0,0,0-13.7,3,27,27,0,0,0-9.47,8.16,37.16,37.16,0,0,0-5.6,11.56,46.67,46.67,0,0,0-1.87,13.19,63.18,63.18,0,0,0,1.62,14.45,37.66,37.66,0,0,0,5,12.07,26.77,26.77,0,0,0,8.47,8.28,22.55,22.55,0,0,0,12.08,3.14,25,25,0,0,0,11.71-3.14q6-3.13,8.47-7.41Z"/><path class="cls-1" d="M1339.7,659.5l-1.24-9a34.48,34.48,0,0,1-12.82,8.72,45.2,45.2,0,0,1-17.09,3.16,43.15,43.15,0,0,1-15-2.63,39.63,39.63,0,0,1-12.68-7.51,36.71,36.71,0,0,1-12.32-28.18,34.42,34.42,0,0,1,3.52-15.9,34.89,34.89,0,0,1,9.55-11.64,52.86,52.86,0,0,1,13.82-7.77,88.07,88.07,0,0,1,16.34-4.51,113.45,113.45,0,0,1,13.19-1.87q7.17-.63,12-1.13v-1.76q0-10-5.17-14.27t-14.21-4.26a39.24,39.24,0,0,0-10.07,1.26,44.14,44.14,0,0,0-8.56,3.12,69.41,69.41,0,0,0-6.67,3.76,46,46,0,0,0-4.66,3.38l-10.27-21.79a46.85,46.85,0,0,1,6.14-4.25,69.07,69.07,0,0,1,10-4.88,83.09,83.09,0,0,1,13.27-4,73.51,73.51,0,0,1,15.9-1.63,60.15,60.15,0,0,1,18.28,2.63,36.88,36.88,0,0,1,14.28,8.26,38.3,38.3,0,0,1,9.39,14.26q3.38,8.63,3.38,20.88V659.5ZM1337.21,603c-3.37.17-6.81.47-10.34.88s-6.89,1-10.08,1.63q-10.1,2-14,6.89a16.63,16.63,0,0,0-3.91,10.64,11.89,11.89,0,0,0,4.41,9.65q4.41,3.63,12.48,3.62a28.72,28.72,0,0,0,11.72-2.5,34.67,34.67,0,0,0,9.71-6.26Z"/><path class="cls-1" d="M1464,520.12a48.3,48.3,0,0,0-5.88-2.13,40.39,40.39,0,0,0-11.65-1.37,15.81,15.81,0,0,0-10.89,3.88q-4.38,3.88-4.39,12.65v5.75h26V564h-25.8v95.66h-31.05V564h-16V538.9h16v-6.5q0-11.77,3-19.91a34.49,34.49,0,0,1,8.39-13.28,33,33,0,0,1,12.64-7.51,50.58,50.58,0,0,1,15.78-2.38,69.11,69.11,0,0,1,18.66,2.13q7.38,2.13,8.63,2.88Z"/><path class="cls-1" d="M1579.15,598.76a76.11,76.11,0,0,1-3.63,23.16,64,64,0,0,1-10.77,20.42,53.43,53.43,0,0,1-18,14.52q-10.9,5.5-25.42,5.51t-25.42-5.51a53.43,53.43,0,0,1-18-14.52,63.81,63.81,0,0,1-10.77-20.42,75.81,75.81,0,0,1-3.63-23.16,74.67,74.67,0,0,1,3.63-23,62.53,62.53,0,0,1,10.77-20.16,52.93,52.93,0,0,1,18-14.28q10.89-5.37,25.42-5.38t25.29,5.38a54.5,54.5,0,0,1,18,14.28,61.51,61.51,0,0,1,10.9,20.16,75,75,0,0,1,3.63,23m-30.55-.13a57,57,0,0,0-1.76-14.32,34.72,34.72,0,0,0-5.26-11.69,27,27,0,0,0-8.51-7.78,25.33,25.33,0,0,0-23.54,0,27,27,0,0,0-8.52,7.78,34.71,34.71,0,0,0-5.25,11.69,59.71,59.71,0,0,0,0,28.78,38.1,38.1,0,0,0,5.13,11.68,24.87,24.87,0,0,0,8.51,7.92,23.91,23.91,0,0,0,11.9,2.88,23.2,23.2,0,0,0,11.77-2.88,26.5,26.5,0,0,0,8.51-7.92,36.25,36.25,0,0,0,5.26-11.68,56.62,56.62,0,0,0,1.76-14.46"/><path class="cls-1" d="M1675.54,659.61V590.74q0-13.75-5.77-21.28t-16-7.51a25.22,25.22,0,0,0-13.4,3.75,57.39,57.39,0,0,0-10.64,8.27v85.64h-31V538.9H1627l1.51,9.52a53.84,53.84,0,0,1,16.4-9.26,54.53,54.53,0,0,1,18.41-3.26,51.53,51.53,0,0,1,17.53,2.88,34.25,34.25,0,0,1,13.77,9.14,42.26,42.26,0,0,1,8.89,16.28q3.13,10,3.13,24v71.37Z"/><path class="cls-1" d="M1756.37,607q1,15.29,9.55,22t22.13,6.76a58.38,58.38,0,0,0,11.81-1.13,53.68,53.68,0,0,0,9.81-2.87,60.38,60.38,0,0,0,7.29-3.51,23,23,0,0,0,4.53-3.26l8.26,25.3a62.48,62.48,0,0,1-5.64,3.38,57.29,57.29,0,0,1-9.64,4A101.71,101.71,0,0,1,1801,661a98.53,98.53,0,0,1-17,1.38,66.65,66.65,0,0,1-22.41-3.76A49.77,49.77,0,0,1,1742.85,647a57.21,57.21,0,0,1-12.77-19.65q-4.77-11.77-4.76-28,0-15.27,4.38-27a57.13,57.13,0,0,1,12-19.79,52.25,52.25,0,0,1,17.79-12.27,55.31,55.31,0,0,1,21.66-4.26,58.69,58.69,0,0,1,21.28,3.76,43.52,43.52,0,0,1,16.9,11.64q7.14,7.89,11.27,20.41t4.14,29.8V607Zm46.83-22.28a32.25,32.25,0,0,0-2.64-10.9,23.21,23.21,0,0,0-5.29-7.51,20.84,20.84,0,0,0-14.22-5.64q-8.07,0-15.36,6t-8.56,18Z"/><path class="cls-1" d="M1646,882.05A32.73,32.73,0,0,0,1661.36,871q6.21-7.89,6.21-20.3,0-14.1-8.15-22T1636,815.19q-26.75-9.74-26.75-20.91a15.41,15.41,0,0,1,4.5-10.71q4.5-4.86,14.71-4.87a40.78,40.78,0,0,1,16.3,3.16,44.71,44.71,0,0,1,13.13,8.76l7.54-13.37a50.86,50.86,0,0,0-15.08-9.61q-9.25-4-22.13-4-16.31,0-26.15,8.86t-9.84,23q0,12.16,6.8,19.57t23.35,13.5q28.7,11.19,28.7,23.34c0,6.33-1.92,11-5.72,13.87s-9.44,4.37-16.9,4.37a40.63,40.63,0,0,1-19.09-4.26,70.62,70.62,0,0,1-13.5-8.87l-6.31,15.07a39.35,39.35,0,0,0,7.29,5.11,61.33,61.33,0,0,0,13.37,5.6,63,63,0,0,0,18.24,2.43,53.54,53.54,0,0,0,17.62-3.17m-92.63,0A32.78,32.78,0,0,0,1568.71,871q6.21-7.89,6.21-20.3,0-14.1-8.15-22t-23.47-13.49q-26.74-9.74-26.74-20.91a15.44,15.44,0,0,1,4.49-10.71q4.5-4.86,14.72-4.87a40.73,40.73,0,0,1,16.29,3.16,44.71,44.71,0,0,1,13.13,8.76l7.54-13.37a50.86,50.86,0,0,0-15.08-9.61q-9.24-4-22.13-4-16.3,0-26.14,8.86t-9.85,23q0,12.16,6.81,19.57t23.35,13.5q28.68,11.19,28.69,23.34,0,9.5-5.71,13.87t-16.9,4.37a40.67,40.67,0,0,1-19.1-4.26,70.94,70.94,0,0,1-13.5-8.87l-6.31,15.07a39.35,39.35,0,0,0,7.29,5.11,61.54,61.54,0,0,0,13.37,5.6,63,63,0,0,0,18.25,2.43,53.69,53.69,0,0,0,17.63-3.17M1413,785.4a28.07,28.07,0,0,1,19-6.94c3.25,0,7.13.94,11.68,2.8a25.4,25.4,0,0,1,11.55,10.09,34.19,34.19,0,0,1,5.23,17.27H1402q2.93-16.29,11-23.22m46.32,96.17q11.07-3.65,16.41-9l-4.61-15.33a59.91,59.91,0,0,1-14.84,9.24,46.62,46.62,0,0,1-19,3.65q-18,0-27.48-12.4t-9.49-34.29h80.26a97.23,97.23,0,0,0-4.25-27.48,45.46,45.46,0,0,0-15.69-23.34q-11.45-9-28.7-9a51.71,51.71,0,0,0-22.86,5.58q-11.43,5.61-18.84,20.19t-7.42,34.53q0,29.91,14.59,45.59t39.39,15.69a71.47,71.47,0,0,0,22.5-3.65m-175.94,1V791.59a77.21,77.21,0,0,1,14.35-8.87,39.16,39.16,0,0,1,17.27-4q14.1,0,20.3,8.28t6.2,22.86v72.7h17.76V810.32q0-23.34-9.25-35t-32.09-11.66a52.92,52.92,0,0,0-19,3.4,59.59,59.59,0,0,0-15.81,8.75l-1.21-9.24h-16.3v116Zm-47.9-139.45c2.27-2,3.41-5,3.41-8.88q0-5.6-3.41-8.76a11.73,11.73,0,0,0-8.26-3.16,12.18,12.18,0,0,0-8.39,3.16,11.17,11.17,0,0,0-3.53,8.76c0,3.89,1.18,6.84,3.53,8.88a12.46,12.46,0,0,0,8.39,3,12,12,0,0,0,8.26-3m.73,23.46h-18v116h18Zm-60.42,115.5A32.81,32.81,0,0,0,1191.08,871q6.2-7.89,6.2-20.3,0-14.1-8.15-22t-23.46-13.49q-26.76-9.74-26.75-20.91a15.49,15.49,0,0,1,4.49-10.71q4.5-4.86,14.72-4.87a40.73,40.73,0,0,1,16.29,3.16,44.58,44.58,0,0,1,13.13,8.76l7.54-13.37a50.86,50.86,0,0,0-15.08-9.61q-9.24-4-22.12-4-16.29,0-26.15,8.86t-9.85,23q0,12.16,6.81,19.57t23.35,13.5q28.68,11.19,28.69,23.34,0,9.5-5.71,13.87t-16.9,4.37a40.63,40.63,0,0,1-19.09-4.26,70.31,70.31,0,0,1-13.5-8.87l-6.32,15.07a39.35,39.35,0,0,0,7.29,5.11,61.43,61.43,0,0,0,13.38,5.6,62.88,62.88,0,0,0,18.24,2.43,53.69,53.69,0,0,0,17.63-3.17m-112,0a60.3,60.3,0,0,0,14.59-8.5l1.21,9h16.54v-116h-18.23v90.7a45.79,45.79,0,0,1-13.74,9.13,41,41,0,0,1-16.9,3.76q-13.14,0-19.83-6.93T1020.74,841V766.55H1003V840q0,22.86,9.73,34t31.62,11.19q11.67,0,19.45-3.17M912,869.17A47.46,47.46,0,0,1,902.8,866V786.49a39.73,39.73,0,0,1,12-5.71,44.68,44.68,0,0,1,11.55-1.58,34.78,34.78,0,0,1,15.81,4.24q8.26,4.27,14.1,14.72t5.84,26q0,21.17-10.7,33.68T922,870.39a43,43,0,0,1-10-1.22M948.64,880q12.52-5.24,21.64-19.82t9.12-35.5a87.1,87.1,0,0,0-5-29.06,46.87,46.87,0,0,0-17-23,46.14,46.14,0,0,0-27.84-8.76,61.11,61.11,0,0,0-13,1.46,62,62,0,0,0-13.74,4.87V720.34H885.06V876.46a111.12,111.12,0,0,0,16.77,6,83.6,83.6,0,0,0,22.62,2.8A62.61,62.61,0,0,0,948.64,880"/><path class="cls-1" d="M883.22,419.43V256h48.52q26.71,0,39.58,12.5t12.87,37q0,23.77-13.6,36T931,353.75H901.85v65.68Zm18.63-82.84h30.39q14.21,0,23.16-7.35T964.34,305q0-16.91-8.46-24.51T932,272.87H901.85Z"/><path class="cls-1" d="M1029.28,422.13a42.89,42.89,0,0,1-14.09-2.33,37.9,37.9,0,0,1-12.13-6.86,32.6,32.6,0,0,1-8.58-11.4,37.49,37.49,0,0,1-3.18-15.93q0-17.14,12.5-27.08A60.19,60.19,0,0,1,1032,346a168.57,168.57,0,0,1,26.71-2.57V342q0-14.72-6-21.08t-17-6.37a44.89,44.89,0,0,0-15.94,3.06,57.45,57.45,0,0,0-15.68,9.19l-5.88-13.72a81.82,81.82,0,0,1,15.68-9.19q9.31-4.29,23.29-4.29,18.61,0,29,10.05t10.41,33.57v76.22h-16.42l-.73-10.05a40.6,40.6,0,0,1-30.15,12.75Zm2.21-15.44a31.33,31.33,0,0,0,14.83-3.56,64.53,64.53,0,0,0,12.37-8.45V358.4a132,132,0,0,0-27.08,3.32q-11.38,2.82-16.79,9.06a22.33,22.33,0,0,0-5.39,15.08,19.81,19.81,0,0,0,4.54,13.23q4.53,5.39,9.19,6.49A36.31,36.31,0,0,0,1031.49,406.69Z"/><path class="cls-1" d="M1108.19,419.43V302.53h16.18l1.72,11.76a82.05,82.05,0,0,1,13.84-10.41,30,30,0,0,1,15.57-4.29,48.43,48.43,0,0,1,10,1.22l-2.21,17.4a43.2,43.2,0,0,0-8.82-1,29.22,29.22,0,0,0-15.32,4.54,68.46,68.46,0,0,0-13.11,10.17v87.49Z"/><path class="cls-1" d="M1218.73,422.13q-12.49,0-19.24-6.74t-6.74-20.71V318h-19.12V302.53h19.12V270.67h17.89v31.86h29.16V318h-29.4v74.75q0,8.58,3.18,11.39a11.7,11.7,0,0,0,8.09,2.82q7.85,0,16.17-6.37l4.91,14.22a44,44,0,0,1-10.18,5.14A40,40,0,0,1,1218.73,422.13Z"/><path class="cls-1" d="M1261.86,419.43V302.53h16.42l1.23,9.31a60,60,0,0,1,15.92-8.82,53.54,53.54,0,0,1,19.12-3.43q23,0,32.35,11.76t9.32,35.29v72.79h-17.89V346.15q0-14.7-6.25-23t-20.47-8.33a39.3,39.3,0,0,0-17.4,4.05,75.87,75.87,0,0,0-14.46,8.94v91.66Z"/><path class="cls-1" d="M1436.84,422.13q-25,0-39.7-15.81t-14.7-45.95q0-20.1,7.47-34.8t19-20.35a52.12,52.12,0,0,1,23-5.63q17.4,0,28.92,9.07a45.68,45.68,0,0,1,15.81,23.52,97.37,97.37,0,0,1,4.29,27.7h-80.88q0,22,9.56,34.55t27.7,12.5a46.94,46.94,0,0,0,19.11-3.67,60.94,60.94,0,0,0,15-9.32l4.66,15.44q-5.4,5.4-16.55,9.07A72,72,0,0,1,1436.84,422.13Zm-35-77.2h58.82a34.47,34.47,0,0,0-5.27-17.4,25.6,25.6,0,0,0-11.64-10.18,32.15,32.15,0,0,0-11.77-2.81,28.32,28.32,0,0,0-19.11,7Q1404.75,328.51,1401.8,344.93Z"/><path class="cls-1" d="M1506.2,419.43V302.53h16.18l1.71,11.76a82.12,82.12,0,0,1,13.85-10.41,30,30,0,0,1,15.56-4.29,48.35,48.35,0,0,1,10,1.22l-2.21,17.4a43.13,43.13,0,0,0-8.82-1,29.22,29.22,0,0,0-15.32,4.54,69.08,69.08,0,0,0-13.11,10.17v87.49Z"/><rect class="cls-3" width="2096.76" height="1153.61"/></svg>